<?xml version="1.0" encoding="utf-8" standalone="no"?>
<!DOCTYPE svg PUBLIC "-//W3C//DTD SVG 1.1//EN"
  "http://www.w3.org/Graphics/SVG/1.1/DTD/svg11.dtd">
<svg xmlns:xlink="http://www.w3.org/1999/xlink" width="446.4pt" height="237.6pt" viewBox="0 0 446.4 237.6" xmlns="http://www.w3.org/2000/svg" version="1.1">
 <metadata>
  <rdf:RDF xmlns:dc="http://purl.org/dc/elements/1.1/" xmlns:cc="http://creativecommons.org/ns#" xmlns:rdf="http://www.w3.org/1999/02/22-rdf-syntax-ns#">
   <cc:Work>
    <dc:type rdf:resource="http://purl.org/dc/dcmitype/StillImage"/>
    <dc:date>2026-06-17T10:01:49.973222</dc:date>
    <dc:format>image/svg+xml</dc:format>
    <dc:creator>
     <cc:Agent>
      <dc:title>Matplotlib v3.10.8, https://matplotlib.org/</dc:title>
     </cc:Agent>
    </dc:creator>
   </cc:Work>
  </rdf:RDF>
 </metadata>
 <defs>
  <style type="text/css">*{stroke-linejoin: round; stroke-linecap: butt}</style>
 </defs>
 <g id="figure_1">
  <g id="patch_1">
   <path d="M 0 237.6 
L 446.4 237.6 
L 446.4 0 
L 0 0 
z
" style="fill: #ffffff"/>
  </g>
  <g id="axes_1">
   <g id="patch_2">
    <path d="M 46.880281 195.64 
L 435.6 195.64 
L 435.6 25.44 
L 46.880281 25.44 
z
" style="fill: #ffffff"/>
   </g>
   <g id="matplotlib.axis_1">
    <g id="xtick_1">
     <g id="line2d_1">
      <path d="M 64.549359 195.64 
L 64.549359 25.44 
" clip-path="url(#p8348826b53)" style="fill: none; stroke-dasharray: 0.5,0.825; stroke-dashoffset: 0; stroke: #cccccc; stroke-width: 0.5"/>
     </g>
     <g id="line2d_2">
      <defs>
       <path id="mfe410c9181" d="M 0 0 
L 0 3.5 
" style="stroke: #000000; stroke-width: 0.8"/>
      </defs>
      <g>
       <use xlink:href="#mfe410c9181" x="64.549359" y="195.64" style="stroke: #000000; stroke-width: 0.8"/>
      </g>
     </g>
     <g id="text_1">
      <text style="font-size: 10px; font-family: 'Times New Roman', 'Times', 'DejaVu Serif', serif; text-anchor: middle" x="64.549359" y="209.58375" transform="rotate(-0 64.549359 209.58375)">0</text>
     </g>
    </g>
    <g id="xtick_2">
     <g id="line2d_3">
      <path d="M 123.446286 195.64 
L 123.446286 25.44 
" clip-path="url(#p8348826b53)" style="fill: none; stroke-dasharray: 0.5,0.825; stroke-dashoffset: 0; stroke: #cccccc; stroke-width: 0.5"/>
     </g>
     <g id="line2d_4">
      <g>
       <use xlink:href="#mfe410c9181" x="123.446286" y="195.64" style="stroke: #000000; stroke-width: 0.8"/>
      </g>
     </g>
     <g id="text_2">
      <text style="font-size: 10px; font-family: 'Times New Roman', 'Times', 'DejaVu Serif', serif; text-anchor: middle" x="123.446286" y="209.58375" transform="rotate(-0 123.446286 209.58375)">5000</text>
     </g>
    </g>
    <g id="xtick_3">
     <g id="line2d_5">
      <path d="M 182.343214 195.64 
L 182.343214 25.44 
" clip-path="url(#p8348826b53)" style="fill: none; stroke-dasharray: 0.5,0.825; stroke-dashoffset: 0; stroke: #cccccc; stroke-width: 0.5"/>
     </g>
     <g id="line2d_6">
      <g>
       <use xlink:href="#mfe410c9181" x="182.343214" y="195.64" style="stroke: #000000; stroke-width: 0.8"/>
      </g>
     </g>
     <g id="text_3">
      <text style="font-size: 10px; font-family: 'Times New Roman', 'Times', 'DejaVu Serif', serif; text-anchor: middle" x="182.343214" y="209.58375" transform="rotate(-0 182.343214 209.58375)">10000</text>
     </g>
    </g>
    <g id="xtick_4">
     <g id="line2d_7">
      <path d="M 241.240141 195.64 
L 241.240141 25.44 
" clip-path="url(#p8348826b53)" style="fill: none; stroke-dasharray: 0.5,0.825; stroke-dashoffset: 0; stroke: #cccccc; stroke-width: 0.5"/>
     </g>
     <g id="line2d_8">
      <g>
       <use xlink:href="#mfe410c9181" x="241.240141" y="195.64" style="stroke: #000000; stroke-width: 0.8"/>
      </g>
     </g>
     <g id="text_4">
      <text style="font-size: 10px; font-family: 'Times New Roman', 'Times', 'DejaVu Serif', serif; text-anchor: middle" x="241.240141" y="209.58375" transform="rotate(-0 241.240141 209.58375)">15000</text>
     </g>
    </g>
    <g id="xtick_5">
     <g id="line2d_9">
      <path d="M 300.137068 195.64 
L 300.137068 25.44 
" clip-path="url(#p8348826b53)" style="fill: none; stroke-dasharray: 0.5,0.825; stroke-dashoffset: 0; stroke: #cccccc; stroke-width: 0.5"/>
     </g>
     <g id="line2d_10">
      <g>
       <use xlink:href="#mfe410c9181" x="300.137068" y="195.64" style="stroke: #000000; stroke-width: 0.8"/>
      </g>
     </g>
     <g id="text_5">
      <text style="font-size: 10px; font-family: 'Times New Roman', 'Times', 'DejaVu Serif', serif; text-anchor: middle" x="300.137068" y="209.58375" transform="rotate(-0 300.137068 209.58375)">20000</text>
     </g>
    </g>
    <g id="xtick_6">
     <g id="line2d_11">
      <path d="M 359.033995 195.64 
L 359.033995 25.44 
" clip-path="url(#p8348826b53)" style="fill: none; stroke-dasharray: 0.5,0.825; stroke-dashoffset: 0; stroke: #cccccc; stroke-width: 0.5"/>
     </g>
     <g id="line2d_12">
      <g>
       <use xlink:href="#mfe410c9181" x="359.033995" y="195.64" style="stroke: #000000; stroke-width: 0.8"/>
      </g>
     </g>
     <g id="text_6">
      <text style="font-size: 10px; font-family: 'Times New Roman', 'Times', 'DejaVu Serif', serif; text-anchor: middle" x="359.033995" y="209.58375" transform="rotate(-0 359.033995 209.58375)">25000</text>
     </g>
    </g>
    <g id="xtick_7">
     <g id="line2d_13">
      <path d="M 417.930922 195.64 
L 417.930922 25.44 
" clip-path="url(#p8348826b53)" style="fill: none; stroke-dasharray: 0.5,0.825; stroke-dashoffset: 0; stroke: #cccccc; stroke-width: 0.5"/>
     </g>
     <g id="line2d_14">
      <g>
       <use xlink:href="#mfe410c9181" x="417.930922" y="195.64" style="stroke: #000000; stroke-width: 0.8"/>
      </g>
     </g>
     <g id="text_7">
      <text style="font-size: 10px; font-family: 'Times New Roman', 'Times', 'DejaVu Serif', serif; text-anchor: middle" x="417.930922" y="209.58375" transform="rotate(-0 417.930922 209.58375)">30000</text>
     </g>
    </g>
    <g id="text_8">
     <text style="font-size: 10px; font-family: 'Times New Roman', 'Times', 'DejaVu Serif', serif; text-anchor: middle" x="241.240141" y="222.666562" transform="rotate(-0 241.240141 222.666562)">move</text>
    </g>
   </g>
   <g id="matplotlib.axis_2">
    <g id="ytick_1">
     <g id="line2d_15">
      <path d="M 46.880281 176.856356 
L 435.6 176.856356 
" clip-path="url(#p8348826b53)" style="fill: none; stroke-dasharray: 0.5,0.825; stroke-dashoffset: 0; stroke: #cccccc; stroke-width: 0.5"/>
     </g>
     <g id="line2d_16">
      <defs>
       <path id="md3aee21f22" d="M 0 0 
L -3.5 0 
" style="stroke: #000000; stroke-width: 0.8"/>
      </defs>
      <g>
       <use xlink:href="#md3aee21f22" x="46.880281" y="176.856356" style="stroke: #000000; stroke-width: 0.8"/>
      </g>
     </g>
     <g id="text_9">
      <!-- $\mathdefault{10^{6}}$ -->
      <g transform="translate(25.780281 181.286825)">
       <text>
        <tspan x="0" y="-0.252813" style="font-size: 10px; font-family: 'Times New Roman'">1</tspan>
        <tspan x="5" y="-0.252813" style="font-size: 10px; font-family: 'Times New Roman'">0</tspan>
        <tspan x="10.150281" y="-6.264063" style="font-size: 7px; font-family: 'Times New Roman'">6</tspan>
       </text>
      </g>
     </g>
    </g>
    <g id="ytick_2">
     <g id="line2d_17">
      <path d="M 46.880281 86.197746 
L 435.6 86.197746 
" clip-path="url(#p8348826b53)" style="fill: none; stroke-dasharray: 0.5,0.825; stroke-dashoffset: 0; stroke: #cccccc; stroke-width: 0.5"/>
     </g>
     <g id="line2d_18">
      <g>
       <use xlink:href="#md3aee21f22" x="46.880281" y="86.197746" style="stroke: #000000; stroke-width: 0.8"/>
      </g>
     </g>
     <g id="text_10">
      <!-- $\mathdefault{10^{7}}$ -->
      <g transform="translate(25.780281 90.578215)">
       <text>
        <tspan x="0" y="-0.35125" style="font-size: 10px; font-family: 'Times New Roman'">1</tspan>
        <tspan x="5" y="-0.35125" style="font-size: 10px; font-family: 'Times New Roman'">0</tspan>
        <tspan x="10.150281" y="-6.3625" style="font-size: 7px; font-family: 'Times New Roman'">7</tspan>
       </text>
      </g>
     </g>
    </g>
    <g id="ytick_3">
     <g id="line2d_19">
      <path d="M 46.880281 190.899553 
L 435.6 190.899553 
" clip-path="url(#p8348826b53)" style="fill: none; stroke-dasharray: 0.5,0.825; stroke-dashoffset: 0; stroke: #cccccc; stroke-width: 0.5"/>
     </g>
     <g id="line2d_20">
      <defs>
       <path id="m2dbf16fb83" d="M 0 0 
L -2 0 
" style="stroke: #000000; stroke-width: 0.6"/>
      </defs>
      <g>
       <use xlink:href="#m2dbf16fb83" x="46.880281" y="190.899553" style="stroke: #000000; stroke-width: 0.6"/>
      </g>
     </g>
    </g>
    <g id="ytick_4">
     <g id="line2d_21">
      <path d="M 46.880281 185.642084 
L 435.6 185.642084 
" clip-path="url(#p8348826b53)" style="fill: none; stroke-dasharray: 0.5,0.825; stroke-dashoffset: 0; stroke: #cccccc; stroke-width: 0.5"/>
     </g>
     <g id="line2d_22">
      <g>
       <use xlink:href="#m2dbf16fb83" x="46.880281" y="185.642084" style="stroke: #000000; stroke-width: 0.6"/>
      </g>
     </g>
    </g>
    <g id="ytick_5">
     <g id="line2d_23">
      <path d="M 46.880281 181.004667 
L 435.6 181.004667 
" clip-path="url(#p8348826b53)" style="fill: none; stroke-dasharray: 0.5,0.825; stroke-dashoffset: 0; stroke: #cccccc; stroke-width: 0.5"/>
     </g>
     <g id="line2d_24">
      <g>
       <use xlink:href="#m2dbf16fb83" x="46.880281" y="181.004667" style="stroke: #000000; stroke-width: 0.6"/>
      </g>
     </g>
    </g>
    <g id="ytick_6">
     <g id="line2d_25">
      <path d="M 46.880281 149.565395 
L 435.6 149.565395 
" clip-path="url(#p8348826b53)" style="fill: none; stroke-dasharray: 0.5,0.825; stroke-dashoffset: 0; stroke: #cccccc; stroke-width: 0.5"/>
     </g>
     <g id="line2d_26">
      <g>
       <use xlink:href="#m2dbf16fb83" x="46.880281" y="149.565395" style="stroke: #000000; stroke-width: 0.6"/>
      </g>
     </g>
    </g>
    <g id="ytick_7">
     <g id="line2d_27">
      <path d="M 46.880281 133.601206 
L 435.6 133.601206 
" clip-path="url(#p8348826b53)" style="fill: none; stroke-dasharray: 0.5,0.825; stroke-dashoffset: 0; stroke: #cccccc; stroke-width: 0.5"/>
     </g>
     <g id="line2d_28">
      <g>
       <use xlink:href="#m2dbf16fb83" x="46.880281" y="133.601206" style="stroke: #000000; stroke-width: 0.6"/>
      </g>
     </g>
    </g>
    <g id="ytick_8">
     <g id="line2d_29">
      <path d="M 46.880281 122.274434 
L 435.6 122.274434 
" clip-path="url(#p8348826b53)" style="fill: none; stroke-dasharray: 0.5,0.825; stroke-dashoffset: 0; stroke: #cccccc; stroke-width: 0.5"/>
     </g>
     <g id="line2d_30">
      <g>
       <use xlink:href="#m2dbf16fb83" x="46.880281" y="122.274434" style="stroke: #000000; stroke-width: 0.6"/>
      </g>
     </g>
    </g>
    <g id="ytick_9">
     <g id="line2d_31">
      <path d="M 46.880281 113.488707 
L 435.6 113.488707 
" clip-path="url(#p8348826b53)" style="fill: none; stroke-dasharray: 0.5,0.825; stroke-dashoffset: 0; stroke: #cccccc; stroke-width: 0.5"/>
     </g>
     <g id="line2d_32">
      <g>
       <use xlink:href="#m2dbf16fb83" x="46.880281" y="113.488707" style="stroke: #000000; stroke-width: 0.6"/>
      </g>
     </g>
    </g>
    <g id="ytick_10">
     <g id="line2d_33">
      <path d="M 46.880281 106.310245 
L 435.6 106.310245 
" clip-path="url(#p8348826b53)" style="fill: none; stroke-dasharray: 0.5,0.825; stroke-dashoffset: 0; stroke: #cccccc; stroke-width: 0.5"/>
     </g>
     <g id="line2d_34">
      <g>
       <use xlink:href="#m2dbf16fb83" x="46.880281" y="106.310245" style="stroke: #000000; stroke-width: 0.6"/>
      </g>
     </g>
    </g>
    <g id="ytick_11">
     <g id="line2d_35">
      <path d="M 46.880281 100.240942 
L 435.6 100.240942 
" clip-path="url(#p8348826b53)" style="fill: none; stroke-dasharray: 0.5,0.825; stroke-dashoffset: 0; stroke: #cccccc; stroke-width: 0.5"/>
     </g>
     <g id="line2d_36">
      <g>
       <use xlink:href="#m2dbf16fb83" x="46.880281" y="100.240942" style="stroke: #000000; stroke-width: 0.6"/>
      </g>
     </g>
    </g>
    <g id="ytick_12">
     <g id="line2d_37">
      <path d="M 46.880281 94.983473 
L 435.6 94.983473 
" clip-path="url(#p8348826b53)" style="fill: none; stroke-dasharray: 0.5,0.825; stroke-dashoffset: 0; stroke: #cccccc; stroke-width: 0.5"/>
     </g>
     <g id="line2d_38">
      <g>
       <use xlink:href="#m2dbf16fb83" x="46.880281" y="94.983473" style="stroke: #000000; stroke-width: 0.6"/>
      </g>
     </g>
    </g>
    <g id="ytick_13">
     <g id="line2d_39">
      <path d="M 46.880281 90.346056 
L 435.6 90.346056 
" clip-path="url(#p8348826b53)" style="fill: none; stroke-dasharray: 0.5,0.825; stroke-dashoffset: 0; stroke: #cccccc; stroke-width: 0.5"/>
     </g>
     <g id="line2d_40">
      <g>
       <use xlink:href="#m2dbf16fb83" x="46.880281" y="90.346056" style="stroke: #000000; stroke-width: 0.6"/>
      </g>
     </g>
    </g>
    <g id="ytick_14">
     <g id="line2d_41">
      <path d="M 46.880281 58.906785 
L 435.6 58.906785 
" clip-path="url(#p8348826b53)" style="fill: none; stroke-dasharray: 0.5,0.825; stroke-dashoffset: 0; stroke: #cccccc; stroke-width: 0.5"/>
     </g>
     <g id="line2d_42">
      <g>
       <use xlink:href="#m2dbf16fb83" x="46.880281" y="58.906785" style="stroke: #000000; stroke-width: 0.6"/>
      </g>
     </g>
    </g>
    <g id="ytick_15">
     <g id="line2d_43">
      <path d="M 46.880281 42.942596 
L 435.6 42.942596 
" clip-path="url(#p8348826b53)" style="fill: none; stroke-dasharray: 0.5,0.825; stroke-dashoffset: 0; stroke: #cccccc; stroke-width: 0.5"/>
     </g>
     <g id="line2d_44">
      <g>
       <use xlink:href="#m2dbf16fb83" x="46.880281" y="42.942596" style="stroke: #000000; stroke-width: 0.6"/>
      </g>
     </g>
    </g>
    <g id="ytick_16">
     <g id="line2d_45">
      <path d="M 46.880281 31.615824 
L 435.6 31.615824 
" clip-path="url(#p8348826b53)" style="fill: none; stroke-dasharray: 0.5,0.825; stroke-dashoffset: 0; stroke: #cccccc; stroke-width: 0.5"/>
     </g>
     <g id="line2d_46">
      <g>
       <use xlink:href="#m2dbf16fb83" x="46.880281" y="31.615824" style="stroke: #000000; stroke-width: 0.6"/>
      </g>
     </g>
    </g>
    <g id="text_11">
     <text style="font-size: 10px; font-family: 'Times New Roman', 'Times', 'DejaVu Serif', serif; text-anchor: middle" x="19.622469" y="110.54" transform="rotate(-90 19.622469 110.54)">best total cost (log)</text>
    </g>
   </g>
   <g id="line2d_47">
    <path d="M 64.549359 33.176364 
L 69.013746 100.161155 
L 73.478134 130.712976 
L 77.942521 142.638147 
L 82.406908 147.733513 
L 86.871295 150.463933 
L 91.335682 155.694728 
L 95.800069 156.029346 
L 100.264456 159.15017 
L 104.728843 163.325094 
L 109.19323 165.899364 
L 113.657617 166.723721 
L 118.122004 169.280373 
L 122.586391 169.321332 
L 127.050778 171.943315 
L 131.515165 175.478373 
L 135.979553 175.654984 
L 140.44394 175.83147 
L 144.908327 177.163588 
L 149.372714 178.332825 
L 153.837101 178.453745 
L 158.301488 180.28604 
L 162.765875 181.092335 
L 167.230262 181.381552 
L 171.694649 181.401371 
L 176.159036 181.499382 
L 180.623423 181.621566 
L 185.08781 181.643621 
L 189.552197 181.676335 
L 194.016584 181.683063 
L 198.480972 181.692999 
L 202.945359 181.848537 
L 207.409746 181.848537 
L 211.874133 181.870144 
L 216.33852 181.97602 
L 220.802907 181.980315 
L 225.267294 182.008012 
L 229.731681 182.022615 
L 234.196068 182.022615 
L 238.660455 182.026018 
L 243.124842 182.026018 
L 247.589229 183.195951 
L 252.053616 183.234338 
L 256.518004 183.234338 
L 260.982391 183.832211 
L 265.446778 183.859908 
L 269.911165 184.033921 
L 274.375552 184.411437 
L 278.839939 184.662974 
L 283.304326 184.712936 
L 287.768713 184.775538 
L 292.2331 184.786737 
L 296.697487 184.787864 
L 301.161874 184.845646 
L 305.626261 184.861315 
L 310.090648 184.865257 
L 314.555035 184.878687 
L 319.019423 184.878687 
L 323.48381 184.948104 
L 327.948197 184.971019 
L 332.412584 184.972433 
L 336.876971 184.978515 
L 341.341358 185.093419 
L 345.805745 185.121857 
L 350.270132 185.141525 
L 354.734519 185.151821 
L 359.198906 185.184225 
L 363.663293 185.359444 
L 368.12768 185.397686 
L 372.592067 185.435753 
L 377.056454 185.487913 
L 381.520842 185.487913 
L 385.985229 185.530029 
L 390.449616 185.742584 
L 394.914003 185.742846 
L 399.37839 185.742846 
L 403.842777 185.777317 
L 408.307164 185.778563 
L 412.771551 185.815677 
L 417.930922 185.815677 
" clip-path="url(#p8348826b53)" style="fill: none; stroke: #c0392b; stroke-width: 1.8; stroke-linecap: square"/>
   </g>
   <g id="line2d_48">
    <path d="M 64.549359 47.864884 
L 69.013746 133.38589 
L 73.478134 153.346205 
L 77.942521 158.791192 
L 82.406908 173.094408 
L 86.871295 177.023421 
L 91.335682 179.142326 
L 95.800069 179.629862 
L 100.264456 181.775144 
L 104.728843 181.873374 
L 109.19323 182.245482 
L 113.657617 182.58117 
L 118.122004 182.851796 
L 122.586391 183.125634 
L 127.050778 183.213238 
L 131.515165 183.812287 
L 135.979553 183.886733 
L 140.44394 183.986949 
L 144.908327 183.994921 
L 149.372714 184.00446 
L 153.837101 184.265727 
L 158.301488 184.371049 
L 162.765875 184.425908 
L 167.230262 184.444135 
L 171.694649 184.599285 
L 176.159036 184.601576 
L 180.623423 184.665468 
L 185.08781 184.727275 
L 189.552197 185.148737 
L 194.016584 185.24641 
L 198.480972 185.286091 
L 202.945359 185.350511 
L 207.409746 185.36152 
L 211.874133 185.417851 
L 216.33852 185.649983 
L 220.802907 186.033742 
L 225.267294 186.260258 
L 229.731681 186.422885 
L 234.196068 186.482494 
L 238.660455 186.623192 
L 243.124842 186.639544 
L 247.589229 186.679518 
L 252.053616 186.732123 
L 256.518004 186.806596 
L 260.982391 187.044025 
L 265.446778 187.11746 
L 269.911165 187.140373 
L 274.375552 187.143604 
L 278.839939 187.150123 
L 283.304326 187.150123 
L 287.768713 187.222952 
L 292.2331 187.287622 
L 296.697487 187.298079 
L 301.161874 187.302785 
L 305.626261 187.428077 
L 310.090648 187.468155 
L 314.555035 187.473455 
L 319.019423 187.499688 
L 323.48381 187.51356 
L 327.948197 187.547144 
L 332.412584 187.560173 
L 336.876971 187.566868 
L 341.341358 187.578899 
L 345.805745 187.579923 
L 350.270132 187.582641 
L 354.734519 187.592084 
L 359.198906 187.614981 
L 363.663293 187.637713 
L 368.12768 187.659008 
L 372.592067 187.670607 
L 377.056454 187.686188 
L 381.520842 187.740565 
L 385.985229 187.752613 
L 390.449616 187.77171 
L 394.914003 187.809376 
L 399.37839 187.809376 
L 403.842777 187.880838 
L 408.307164 187.903636 
L 412.771551 187.903636 
L 417.235938 187.903636 
" clip-path="url(#p8348826b53)" style="fill: none; stroke: #2471a3; stroke-width: 1.8; stroke-linecap: square"/>
   </g>
   <g id="patch_3">
    <path d="M 46.880281 195.64 
L 46.880281 25.44 
" style="fill: none; stroke: #000000; stroke-width: 0.8; stroke-linejoin: miter; stroke-linecap: square"/>
   </g>
   <g id="patch_4">
    <path d="M 435.6 195.64 
L 435.6 25.44 
" style="fill: none; stroke: #000000; stroke-width: 0.8; stroke-linejoin: miter; stroke-linecap: square"/>
   </g>
   <g id="patch_5">
    <path d="M 46.880281 195.64 
L 435.6 195.64 
" style="fill: none; stroke: #000000; stroke-width: 0.8; stroke-linejoin: miter; stroke-linecap: square"/>
   </g>
   <g id="patch_6">
    <path d="M 46.880281 25.44 
L 435.6 25.44 
" style="fill: none; stroke: #000000; stroke-width: 0.8; stroke-linejoin: miter; stroke-linecap: square"/>
   </g>
   <g id="text_12">
    <text style="font-size: 12px; font-family: 'Times New Roman', 'Times', 'DejaVu Serif', serif; text-anchor: middle" x="241.240141" y="19.44" transform="rotate(-0 241.240141 19.44)">Medium (64 macros)</text>
   </g>
   <g id="legend_1">
    <g id="line2d_49">
     <path d="M 331.3875 37.94 
L 341.3875 37.94 
L 351.3875 37.94 
" style="fill: none; stroke: #c0392b; stroke-width: 1.8; stroke-linecap: square"/>
    </g>
    <g id="text_13">
     <text style="font-size: 10px; font-family: 'Times New Roman', 'Times', 'DejaVu Serif', serif; text-anchor: start" x="359.3875" y="41.44" transform="rotate(-0 359.3875 41.44)">CPU (1 chain)</text>
    </g>
    <g id="line2d_50">
     <path d="M 331.3875 52.079062 
L 341.3875 52.079062 
L 351.3875 52.079062 
" style="fill: none; stroke: #2471a3; stroke-width: 1.8; stroke-linecap: square"/>
    </g>
    <g id="text_14">
     <text style="font-size: 10px; font-family: 'Times New Roman', 'Times', 'DejaVu Serif', serif; text-anchor: start" x="359.3875" y="55.579062" transform="rotate(-0 359.3875 55.579062)">GPU (64 chains)</text>
    </g>
   </g>
  </g>
 </g>
 <defs>
  <clipPath id="p8348826b53">
   <rect x="46.880281" y="25.44" width="388.719719" height="170.2"/>
  </clipPath>
 </defs>
</svg>
